<svg id="Layer_1" enable-background="new 0 0 512.001 512.001" height="512" fill="#212C55" viewBox="0 0 512.001 512.001" width="512" xmlns="http://www.w3.org/2000/svg"><g><g><path d="m102.441 347.208c1.78 0 3.455.693 4.714 1.953 3.905 3.906 10.237 3.907 14.142 0 3.905-3.905 3.906-10.237 0-14.142-3.201-3.201-7.073-5.484-11.297-6.726v-3.29c0-5.523-4.477-10-10-10s-10 4.477-10 10v5.272c-2.334 1.234-4.496 2.822-6.416 4.742-10.397 10.397-10.397 27.315 0 37.712l18.689 18.689c1.259 1.259 1.952 2.933 1.952 4.713s-.693 3.455-1.953 4.714c-2.599 2.599-6.829 2.599-9.428 0-3.905-3.905-10.237-3.905-14.142 0s-3.905 10.237 0 14.142c3.26 3.259 7.159 5.496 11.297 6.711v3.303c0 5.523 4.477 10 10 10s10-4.477 10-10v-5.282c2.309-1.216 4.475-2.792 6.415-4.732 5.037-5.037 7.811-11.733 7.811-18.856 0-7.124-2.774-13.82-7.811-18.856l-18.688-18.689c-1.259-1.259-1.953-2.933-1.953-4.714s.693-3.455 1.953-4.714c1.26-1.257 2.934-1.95 4.715-1.95z"/><path d="m252.002 185.001-.001-30c0-11.028-8.972-20-20-20h-160c-11.028 0-20 8.972-20 20v30c0 11.028 8.972 20 20 20v30c-11.028 0-20 8.972-20 20v30c0 .745.057 1.485.139 2.22-31.041 16.992-52.14 49.969-52.14 87.783 0 55.14 44.86 100 100 100 44.694 0 82.63-29.473 95.402-70.003h36.599c11.028 0 20-8.972 20-20v-30h.001c11.028 0 20-8.972 20-20v-30c0-11.028-8.972-20-20-20h-.001v-30h.001c11.028 0 20-8.972 20-20v-30c0-11.028-8.972-20-20-20zm-152.002 270.003c-44.112 0-80-35.888-80-80s35.888-80 80-80 80 35.888 80 80-35.887 80-80 80zm132.001-70.003h-32.499c.328-3.289.498-6.623.498-9.997 0-6.849-.693-13.538-2.011-20.003h34.002.01zm20.001-80v30h-20.001-40.36c-4.917-11.221-11.836-21.372-20.304-30h60.664zm-20.001-20h-88.441c-13.174-6.402-27.955-9.998-43.56-9.998-9.716 0-19.111 1.398-27.999 3.995v-23.997h19.999.001s.001 0 .001 0h139.989.01zm0-50h-140l-.002-30h.002 24.997c5.523 0 10-4.477 10-10s-4.477-10-10-10h-44.997v-30h160v30h-25.003c-5.523 0-10 4.477-10 10s4.477 10 10 10h25.003 20v30z"/><path d="m492.001 285.001h-160c-11.028 0-20 8.972-20 20v30h-.001c-11.028 0-20 8.972-20 20v30c0 11.028 8.972 20 20 20h160c11.028 0 20-8.972 20-20v-30h.001c11.028 0 20-8.972 20-20v-30c0-11.028-8.971-20-20-20zm-179.99 100h-.011v-30h19.999.001s.001 0 .001 0h139.989.009v30zm179.99-50h-20-140v-30h160z"/><path d="m374.5 210.495c0 16.542 13.458 30 30 30h37.5c4.656 0 9.125-1.042 13.338-3.125.189-.094.378-.191.566-.289.01-.005.081-.042.092-.048.185-.097.369-.197.56-.303l1.412-.835c.159-.1.317-.202.479-.308l.74-.502c.166-.116.33-.233.57-.41.187-.137.372-.276.494-.372.021-.016.1-.076.121-.092 1.995-1.547 3.792-3.343 5.342-5.341.02-.025.06-.079.092-.121.126-.165.251-.329.371-.493.005-.007.055-.075.061-.083.125-.171.248-.343.367-.514l1.635-2.617c.102-.184.202-.368.334-.618.103-.196.204-.394.33-.647 2.056-4.156 3.098-8.625 3.098-13.283v-37.5c0-16.542-13.458-30-30-30-6.945 0-13.447 2.331-18.632 6.445l-103.658-103.656c-5.666-5.666-13.199-8.786-21.212-8.786s-15.546 3.121-21.211 8.786c-5.666 5.666-8.787 13.199-8.787 21.212s3.121 15.546 8.786 21.212l103.656 103.656c-4.114 5.185-6.444 11.687-6.444 18.632zm-83.069-136.431c-1.889-1.888-2.928-4.399-2.928-7.069 0-2.671 1.04-5.181 2.928-7.069 1.949-1.949 4.509-2.924 7.069-2.924s5.121.975 7.069 2.924l111.377 111.377c2.285 2.285 5.535 3.324 8.72 2.792 3.187-.533 5.92-2.572 7.338-5.476 1.694-3.47 5.141-5.625 8.996-5.625 5.514 0 10 4.486 10 10v37.5c0 1.556-.345 3.042-1.026 4.42l-1.034 1.658c-.011.015-.034.045-.057.075-.515.657-1.107 1.247-1.703 1.709-.021.016-.098.075-.118.09l-1.644 1.022c-1.376.68-2.863 1.025-4.418 1.025h-37.5c-5.514 0-10-4.486-10-10 0-3.855 2.155-7.302 5.625-8.996 2.903-1.418 4.943-4.151 5.476-7.338s-.507-6.435-2.792-8.72z"/><path d="m162.002 185.001h-.007c-5.523 0-9.996 4.477-9.996 10s4.48 10 10.003 10 10-4.477 10-10-4.477-10-10-10z"/></g></g></svg>