<svg id="Layer_1" enable-background="new 0 0 495.978 495.978" height="512" fill="#212C55" viewBox="0 0 495.978 495.978" width="512" xmlns="http://www.w3.org/2000/svg"><path d="m491.331 31.235-2.107-11.593c-1.192-6.558-6.324-11.688-12.881-12.881l-11.593-2.107c-49.288-8.959-100.303-4.91-147.524 11.716-61.44 21.631-101.736 57.226-137.237 101.336l-18.75-6.435c-30.416-10.444-64.093-3.489-87.888 18.144l-59.216 53.833c-28.583 25.983-11.008 73.674 27.616 74.877l52.379 1.633c-2.698 16.264 2.457 33.228 14.554 45.324l82.22 82.221c11.688 11.688 28.468 17.355 45.326 14.558l1.632 52.376c1.206 38.734 48.979 56.105 74.877 27.615l53.833-59.216c21.633-23.795 28.585-57.472 18.145-87.888l-6.436-18.751c42.955-34.573 79.163-74.255 101.336-137.236 16.625-47.224 20.676-98.238 11.714-147.526zm-455.672 175.69 59.216-53.833c15.154-13.775 36.603-18.204 55.974-11.555l8.647 2.968c-18.676 25.71-36.245 53.705-51.997 83.653l-64.753-2.018c-9.955-.31-14.461-12.511-7.087-19.215zm318.79 138.211c6.649 19.372 2.222 40.819-11.556 55.974l-53.834 59.216c-6.698 7.371-18.904 2.875-19.214-7.086l-2.018-64.752c29.115-15.314 57.084-32.697 83.653-51.999zm19.365-67.028c-41.687 35.758-87.884 66.179-137.309 90.419-7.673 3.763-16.907 2.215-22.974-3.853.101 0 .746.747-82.221-82.221-6.067-6.067-7.615-15.3-3.852-22.974 4.099-8.359 8.39-16.617 12.839-24.785l86.793 86.793c6.249 6.249 16.378 6.248 22.627 0 6.248-6.248 6.248-16.379 0-22.627l-92.852-92.851c18.679-30.501 39.251-58.567 62.326-85.368 57.901-67.08 148.951-100.993 240.529-84.378 16.164 89.087-14.954 180.816-85.906 241.845zm-90.943-162.527c-43.363 43.361-12.384 117.701 48.767 117.701 61.095 0 92.18-74.29 48.767-117.701-26.892-26.891-70.643-26.891-97.534 0zm74.906 74.906c-14.414 14.412-37.865 14.412-52.279 0-14.413-14.413-14.413-37.866 0-52.279 14.415-14.413 37.865-14.413 52.279 0 14.413 14.413 14.413 37.866 0 52.279zm-333.206 183.708c-6.249-6.248-6.249-16.379 0-22.627l20.719-20.718c6.248-6.248 16.379-6.248 22.627 0 6.249 6.248 6.249 16.379 0 22.627l-20.719 20.719c-6.249 6.248-16.379 6.248-22.627-.001zm141.361 54.67c6.249 6.248 6.249 16.379 0 22.627l-20.718 20.719c-3.125 3.124-7.219 4.687-11.314 4.687-14.125 0-21.423-17.205-11.314-27.313l20.718-20.719c6.25-6.249 16.38-6.251 22.628-.001zm-34.949-41.236-70.351 70.351c-6.25 6.249-16.379 6.249-22.627 0-6.249-6.248-6.249-16.379 0-22.627l70.351-70.352c6.249-6.248 16.379-6.248 22.627 0 6.249 6.249 6.249 16.38 0 22.628z"/></svg>